<svg width="50" height="24" viewBox="0 0 50 24" fill="none" xmlns="http://www.w3.org/2000/svg">
<g clip-path="url(#clip0_279_2440)">
<path fill-rule="evenodd" clip-rule="evenodd" d="M50 12.5998C49.6877 18.9447 44.4452 23.9932 38.0236 23.9932C31.4013 23.9932 26.0327 18.6236 26.0327 11.9999C26.0327 5.37628 31.4013 0.00683594 38.0236 0.00683594C44.2415 0.00683594 49.3539 4.74023 49.9556 10.8008H44.51C43.9462 7.73029 41.2566 5.40384 38.0238 5.40384C34.3814 5.40384 31.4286 8.35703 31.4286 11.9999C31.4286 15.6431 34.3814 18.5963 38.0238 18.5963C40.8201 18.5963 43.2098 16.8556 44.1692 14.3988H35.026V12.5998H50ZM4.44649 20.8942C9.15323 25.1598 16.4293 25.0219 20.97 20.4805C25.6527 15.7968 25.6527 8.20328 20.97 3.51958C16.2872 -1.16399 8.6949 -1.16399 4.0121 3.51958C-0.384553 7.91706 -0.653207 14.8797 3.20609 19.5907L7.05662 15.7395C5.28467 13.1696 5.54169 9.62223 7.82765 7.3359C10.4031 4.75989 14.5789 4.75989 17.1545 7.3359C19.73 9.91196 19.73 14.0884 17.1545 16.6644C15.1772 18.6421 12.2567 19.1014 9.8413 18.0424L16.3066 11.576L15.0348 10.3041L8.27056 17.0693L4.44649 20.8942Z" fill="#F464BA"/>
</g>
<defs>
<clipPath id="clip0_279_2440">
<rect width="49.5" height="23.9864" fill="white" transform="translate(0.5 0.00683594)"/>
</clipPath>
</defs>
</svg>
