<svg width="67" height="63" viewBox="0 0 67 63" fill="none" xmlns="http://www.w3.org/2000/svg">
<path d="M62.8247 30.8928C63.7166 32.4361 64.2399 34.2251 64.2399 36.1367C64.2399 41.9255 59.546 46.6197 53.7518 46.6197C52.1443 46.6197 50.6279 46.2511 49.266 45.6051C47.9097 46.2514 46.393 46.6197 44.7855 46.6197C42.2862 46.6197 39.9953 45.744 38.1904 44.2859C36.3907 45.7437 34.0999 46.6197 31.6006 46.6197C27.3338 46.6197 23.6703 44.0725 22.0362 40.4143C20.3968 44.0722 16.7334 46.6197 12.4666 46.6197C6.67781 46.6197 1.97839 41.9257 1.97839 36.1367C1.97839 34.93 2.18135 33.7656 2.5606 32.687C3.40434 30.2732 5.10776 28.2653 7.29742 27.0211C5.82362 25.5526 4.91031 23.5233 4.91031 21.275C4.91031 16.8 8.53635 13.174 13.0114 13.174C13.6681 13.174 14.3036 13.2595 14.9125 13.4088C14.9018 13.2114 14.8803 13.0244 14.8803 12.8269C14.8803 7.16632 19.4728 2.5791 25.1281 2.5791C27.8783 2.5791 30.3616 3.66843 32.204 5.42548C34.1959 4.43764 36.4441 3.88211 38.815 3.88211C41.1859 3.88211 43.4396 4.43736 45.4315 5.42548C49.3084 7.3426 52.2348 10.8991 53.3029 15.1873C53.4525 15.1766 53.6022 15.1607 53.7515 15.1607C59.5455 15.1607 64.2396 19.8601 64.2396 25.6488C64.2396 27.5607 63.7163 29.3497 62.8244 30.8928H62.8247Z" fill="#FCA2DC"/>
<path d="M14.1875 21.9629C19.591 24.8992 20.9693 28.4911 18.0602 32.7813L21.8301 29.5695C21.8301 29.5695 22.8892 24.7765 22.7833 24.1146C22.6774 23.4526 22.2443 20.906 22.2443 20.906C22.2443 20.906 18.1169 23.413 14.1875 21.9632V21.9629Z" fill="#F464BA"/>
<path d="M62.8247 30.8933C63.7166 32.4367 64.2399 34.2256 64.2399 36.1373C64.2399 41.926 59.546 46.6202 53.7518 46.6202C52.1443 46.6202 50.6279 46.2517 49.266 45.6057C47.9097 46.2519 46.393 46.6202 44.7855 46.6202C42.2862 46.6202 39.9953 45.7446 38.1904 44.2864C36.3907 45.7443 34.0999 46.6202 31.6006 46.6202C27.3338 46.6202 23.6703 44.073 22.0362 40.4148C20.3968 44.0728 16.7334 46.6202 12.4666 46.6202C6.67781 46.6202 1.97839 41.9263 1.97839 36.1373C1.97839 34.9305 2.18135 33.7661 2.5606 32.6875C7.02488 45.771 21.2461 36.2173 21.2461 21.393L24.2954 19.3318L24.3435 23.0271L25.1287 27.2887L21.9619 32.6878C24.5627 42.2574 44.0757 39.1387 49.4211 26.8831C49.3304 26.8671 49.2396 26.8349 49.1489 26.7975C46.6603 25.7775 42.7193 25.8042 42.7193 25.8042L43.1679 24.5974C43.9156 21.7403 43.1731 19.2253 42.7353 18.1091C44.7432 21.8311 51.7175 20.5977 49.3626 12.8756C49.3591 12.8721 49.3573 12.8685 49.3573 12.8648C48.4976 10.5259 47.2106 8.04277 45.4323 5.42603C49.2184 7.29501 52.097 10.734 53.2237 14.8834L53.3038 15.1879C53.4534 15.1772 53.603 15.1612 53.7523 15.1612C59.5463 15.1612 64.2405 19.8606 64.2405 25.6494C64.2405 27.5613 63.7171 29.3502 62.8253 30.8933H62.8247Z" fill="#F464BA"/>
<path d="M65.0415 25.6491C65.0415 19.4767 60.0621 14.4454 53.9093 14.361C51.9515 7.68694 45.8363 3.08158 38.8157 3.08158C36.5543 3.08158 34.3803 3.5491 32.3458 4.47232C30.3308 2.73093 27.7894 1.77856 25.1289 1.77856C19.1655 1.77856 14.2904 6.52749 14.0866 12.4422C13.7269 12.3963 13.3677 12.3734 13.0118 12.3734C8.10341 12.3734 4.10995 16.3669 4.10995 21.2756C4.10995 23.3272 4.79831 25.2724 6.06667 26.8487C3.0286 28.9427 1.17804 32.418 1.17804 36.1373C1.17804 42.3592 6.2424 47.4211 12.4673 47.4211C16.3835 47.4211 19.9919 45.3807 22.0358 42.1139C24.0759 45.3807 27.6827 47.4211 31.6011 47.4211C33.964 47.4211 36.2801 46.6697 38.1909 45.2941C40.1212 46.6879 42.3882 47.4211 44.7863 47.4211C46.3401 47.4211 47.8455 47.1065 49.2671 46.4855C50.6933 47.1065 52.2003 47.4211 53.7522 47.4211C59.9772 47.4211 65.0415 42.3592 65.0415 36.1373C65.0415 34.3192 64.5927 32.5159 63.7399 30.8931C64.5927 29.2705 65.0415 27.4672 65.0415 25.6491ZM53.7522 45.8191C52.3145 45.8191 50.9207 45.5037 49.61 44.8816C49.5014 44.8302 49.3839 44.8043 49.2665 44.8043C49.1491 44.8043 49.0311 44.8304 48.9219 44.8821C47.6173 45.504 46.2257 45.8191 44.7863 45.8191C42.5468 45.8191 40.4405 45.0736 38.6942 43.6633C38.4002 43.4257 37.9803 43.426 37.6868 43.6638C35.9463 45.0738 33.8421 45.8191 31.6011 45.8191C27.7905 45.8191 24.3234 43.5695 22.7682 40.0881C22.6395 39.7996 22.3532 39.614 22.0375 39.6137H22.0369C21.7212 39.6137 21.4349 39.7991 21.306 40.0873C19.7453 43.5692 16.276 45.8191 12.4673 45.8191C7.12574 45.8191 2.77999 41.4758 2.77999 36.1373C2.77999 32.6636 4.66273 29.4377 7.69309 27.7183C7.9109 27.5948 8.05831 27.3765 8.09186 27.1284C8.12514 26.8804 8.04071 26.6309 7.86333 26.4541C6.47589 25.0719 5.7119 23.2326 5.7119 21.2756C5.7119 17.2502 8.98675 13.9754 13.0118 13.9754C13.5742 13.9754 14.1496 14.0466 14.7219 14.1874C14.9686 14.2479 15.2287 14.188 15.4243 14.0263C15.6195 13.8643 15.7268 13.6195 15.713 13.3662C15.7092 13.2934 15.7039 13.2221 15.6984 13.1509C15.6902 13.0362 15.6819 12.9279 15.6819 12.8272C15.6819 7.61846 19.9199 3.38051 25.1289 3.38051C27.5603 3.38051 29.8767 4.31281 31.6519 6.00551C31.8956 6.23817 32.2589 6.29317 32.5606 6.14357C34.5137 5.1747 36.6181 4.68352 38.8157 4.68352C45.319 4.68352 50.957 9.08263 52.5265 15.3812C52.6206 15.7588 52.972 16.0154 53.3606 15.9866L53.4797 15.9775C53.5787 15.9695 53.6722 15.9621 53.7522 15.9621C58.8469 15.9621 63.0356 19.9151 63.4121 24.9151C63.4165 24.9729 63.4203 25.0309 63.4233 25.0892C63.4341 25.2746 63.4396 25.4613 63.4396 25.6491C63.4396 26.0449 63.4148 26.4398 63.3656 26.8314V26.8322C63.2053 28.1121 62.7864 29.3593 62.1316 30.4924C61.9883 30.7404 61.9883 31.046 62.1316 31.294C62.5722 32.0567 62.906 32.8707 63.126 33.7114C63.1269 33.7136 63.1274 33.7155 63.1277 33.7177C63.1302 33.726 63.1321 33.734 63.134 33.7417C63.1346 33.7444 63.1354 33.7472 63.136 33.7499C63.3367 34.5296 63.4396 35.3321 63.4396 36.1373C63.4396 41.4758 59.0938 45.8191 53.7522 45.8191Z" fill="#1F1F1F"/>
<path d="M66.1042 25.649C66.1042 19.1551 61.0673 13.8157 54.695 13.3333C53.6533 10.3244 51.7491 7.63013 49.2333 5.63876C46.2414 3.2709 42.6393 2.01904 38.8163 2.01904C36.6616 2.01904 34.5088 2.43981 32.5207 3.24313C30.4031 1.6057 27.8221 0.716309 25.1295 0.716309C18.9648 0.716309 13.8608 5.34615 13.1128 11.3117C13.0795 11.3112 13.046 11.3112 13.0124 11.3112C7.51821 11.3112 3.04843 15.781 3.04843 21.2754C3.04843 23.2005 3.5902 25.042 4.60143 26.6264C1.79409 28.9497 0.116516 32.4327 0.116516 36.1371C0.116516 42.9448 5.6572 48.483 12.4679 48.483C16.2251 48.483 19.7236 46.7664 22.0359 43.9343C24.3451 46.7664 27.8425 48.483 31.6016 48.483C33.9368 48.483 36.2301 47.8125 38.1929 46.5736C40.1589 47.8125 42.4534 48.483 44.7868 48.483C46.3343 48.483 47.8381 48.1981 49.2682 47.6351C50.7024 48.1981 52.207 48.483 53.7528 48.483C60.5635 48.483 66.1042 42.9448 66.1042 36.1371C66.1042 34.33 65.6994 32.5364 64.9263 30.8929C65.6994 29.2497 66.1042 27.4561 66.1042 25.649ZM53.7528 46.6198C52.1454 46.6198 50.6289 46.2516 49.2671 45.6053C47.9107 46.2516 46.394 46.6198 44.7868 46.6198C42.2875 46.6198 39.9967 45.7442 38.1915 44.2863C36.3918 45.7442 34.1009 46.6198 31.6016 46.6198C27.3351 46.6198 23.6716 44.0726 22.0375 40.4147C20.3979 44.0726 16.7347 46.6198 12.4679 46.6198C6.67915 46.6198 1.97973 41.9259 1.97973 36.1371C1.97973 32.2281 4.12648 28.821 7.29848 27.0216C5.82468 25.5527 4.91136 23.5237 4.91136 21.2754C4.91136 16.8002 8.53741 13.1741 13.0124 13.1741C13.6694 13.1741 14.305 13.2596 14.9136 13.4092C14.9029 13.2115 14.8817 13.0248 14.8817 12.827C14.8817 7.16646 19.4741 2.57925 25.1295 2.57925C27.8796 2.57925 30.363 3.66857 32.2053 5.42563C34.1972 4.43778 36.4452 3.88226 38.8163 3.88226C45.8121 3.88226 51.6861 8.69388 53.3043 15.1875C53.4539 15.1768 53.6035 15.1608 53.7528 15.1608C59.5471 15.1608 64.241 19.8602 64.241 25.649C64.241 27.2262 63.8848 28.72 63.2589 30.0613C63.1264 30.3456 62.9817 30.6231 62.8258 30.8929C62.9616 31.1283 63.089 31.3692 63.2075 31.6154C63.865 32.9847 64.241 34.5168 64.241 36.1371C64.241 41.9259 59.5471 46.6198 53.7528 46.6198Z" fill="#1F1F1F"/>
<path d="M32.544 6.15234C29.2529 7.77271 26.7145 10.7728 25.5322 14.2372C24.2894 17.7804 24.5004 21.6455 25.4822 25.2591C25.626 25.8427 24.801 26.1312 24.5554 25.5724C22.55 20.9378 22.6482 15.324 25.1854 10.8925C26.7013 8.20531 29.0375 5.97083 31.8655 4.70137C32.8316 4.30342 33.4727 5.66309 32.5442 6.15261L32.544 6.15234Z" fill="#1F1F1F"/>
<path d="M21.3083 40.7487C19.3898 36.7962 20.7041 30.991 24.3648 28.4751C24.9274 28.1185 25.5047 28.8915 25.0023 29.3285C23.5012 30.5826 22.6272 32.4865 22.2527 34.3868C21.8987 36.285 22.0167 38.3063 22.7636 40.0796C23.1415 41.0416 21.7953 41.6626 21.308 40.7487H21.3083Z" fill="#1F1F1F"/>
<path d="M41.0317 15.0577C43.1942 16.3736 44.2942 18.9497 44.4276 21.4091C44.6869 25.4939 42.0963 29.8314 38.1265 31.0604C37.6042 31.215 37.2616 30.528 37.6953 30.2046C38.8737 29.3567 39.9617 28.4486 40.8414 27.3117C42.5264 25.1058 43.1675 22.1143 42.4205 19.4348C42.0391 18.1048 41.3634 16.8865 40.4176 15.7978C40.0516 15.3844 40.5579 14.7744 41.0312 15.058L41.0317 15.0577Z" fill="#1F1F1F"/>
<path d="M52.056 27.2972C51.8206 24.4706 53.7872 21.4556 56.7329 21.1663C57.4067 21.1066 57.616 22.0477 56.9878 22.2823C55.9596 22.6426 55.1015 23.3092 54.5358 24.2266C53.9619 25.1328 53.705 26.2045 53.6566 27.2787C53.5837 28.2767 52.1495 28.2897 52.0557 27.2972H52.056Z" fill="#1F1F1F"/>
<path d="M37.6982 43.6553C39.339 42.3146 40.4871 40.6717 41.9136 39.0496C43.0868 37.7103 44.6371 36.7266 46.4436 36.5558C47.0187 36.4961 47.5866 36.4893 48.144 36.5333C48.4215 36.555 48.6289 36.7978 48.6072 37.0753C48.5874 37.3281 48.3839 37.5228 48.1383 37.5387C45.059 37.7494 43.8827 38.9853 42.1504 41.3289C41.1532 42.6463 40.0356 43.9358 38.6847 44.9179C37.8412 45.4995 36.9285 44.3346 37.6982 43.6556V43.6553Z" fill="#1F1F1F"/>
<path d="M12.1111 20.3022C13.7856 21.606 16.0212 22.0334 18.0805 21.6811C20.1115 21.3379 21.9744 20.2048 23.083 18.4664C23.6633 17.6222 24.9231 18.3705 24.4597 19.2854C24.1542 19.8434 23.7647 20.3574 23.325 20.82C21.5644 22.6521 18.9295 23.4876 16.4368 23.2541C14.5972 23.0922 12.7651 22.3298 11.4843 20.9875C11.0955 20.564 11.6559 19.9521 12.1108 20.3022H12.1111Z" fill="#1F1F1F"/>
<path d="M33.907 13.8925C31.0172 17.086 29.7543 20.0338 28.0927 18.5303C26.431 17.0268 27.4269 13.219 30.3167 10.0256C33.2065 6.83212 36.8961 5.46201 38.5577 6.9655C40.2194 8.469 36.7968 10.6988 33.907 13.8925Z" fill="white"/>
<path d="M10.7372 20.0996C9.17128 21.8299 8.28436 23.188 7.13453 22.1473C5.9847 21.1067 6.32187 18.8606 7.88779 17.13C9.45371 15.3996 11.6552 14.8402 12.805 15.8809C13.9548 16.9215 12.3031 18.3689 10.7372 20.0993V20.0996Z" fill="white"/>
<path d="M56.7852 26.4533C56.2646 27.7063 56.0434 28.6229 55.2107 28.2772C54.378 27.9312 54.1252 26.6351 54.6456 25.3822C55.1662 24.1292 56.2629 23.3938 57.0956 23.7398C57.9284 24.0857 57.3055 25.2004 56.7849 26.4533H56.7852Z" fill="#FFABE3"/>
<path d="M11.4826 42.7278C9.78825 42.7278 8.19538 42.068 6.99742 40.8701C5.79947 39.6721 5.13971 38.0792 5.13971 36.3849C5.13971 34.6905 5.79947 33.0977 6.99742 31.8997C8.19538 30.7017 9.78825 30.042 11.4826 30.042C13.177 30.042 14.7698 30.7017 15.9678 31.8997C17.1657 33.0977 17.8255 34.6905 17.8255 36.3849C17.8255 38.0792 17.1657 39.6721 15.9678 40.8701C14.7698 42.068 13.177 42.7278 11.4826 42.7278Z" fill="white"/>
<path d="M11.4828 30.8035C14.5654 30.8035 17.0645 33.3025 17.0645 36.3852C17.0645 39.4678 14.5654 41.9668 11.4828 41.9668C8.40021 41.9668 5.90116 39.4678 5.90116 36.3852C5.90116 33.3025 8.40021 30.8035 11.4828 30.8035ZM11.4828 29.2808C10.5244 29.2808 9.59376 29.4689 8.71702 29.8396C7.87081 30.1974 7.11122 30.7095 6.45916 31.3615C5.80711 32.0136 5.29504 32.7731 4.93724 33.6194C4.56625 34.4961 4.37842 35.4267 4.37842 36.3852C4.37842 37.3436 4.56653 38.2742 4.93724 39.151C5.29504 39.9972 5.80711 40.7568 6.45916 41.4088C7.11122 42.0609 7.87081 42.573 8.71702 42.9307C9.59376 43.3017 10.5244 43.4896 11.4828 43.4896C12.4412 43.4896 13.3719 43.3015 14.2486 42.9307C15.0948 42.573 15.8544 42.0609 16.5062 41.4088C17.1583 40.7568 17.6703 39.9972 18.0281 39.151C18.3991 38.2742 18.587 37.3436 18.587 36.3852C18.587 35.4267 18.3988 34.4961 18.0281 33.6194C17.6703 32.7731 17.1583 32.0136 16.5062 31.3615C15.8542 30.7095 15.0946 30.1974 14.2486 29.8396C13.3719 29.4686 12.4412 29.2808 11.4828 29.2808Z" fill="#1F1F1F"/>
<path d="M10.243 42.2845C12.6605 42.2845 14.6204 40.3247 14.6204 37.9072C14.6204 35.4896 12.6605 33.5298 10.243 33.5298C7.82542 33.5298 5.8656 35.4896 5.8656 37.9072C5.8656 40.3247 7.82542 42.2845 10.243 42.2845Z" fill="#1F1F1F"/>
<path d="M31.2438 43.7937C29.5494 43.7937 27.9565 43.134 26.7586 41.936C25.5606 40.7381 24.9009 39.1452 24.9009 37.4508C24.9009 36.4517 25.1393 35.4559 25.5909 34.5715C26.0271 33.7164 26.664 32.9585 27.4329 32.3799C28.5387 31.5477 29.8566 31.1077 31.2441 31.1077C33.7384 31.1077 36.0108 32.5784 37.0328 34.8544C37.4005 35.6726 37.5869 36.5463 37.5869 37.4506C37.5869 39.1449 36.9272 40.7378 35.7292 41.9357C34.5313 43.1337 32.9384 43.7935 31.2441 43.7935L31.2438 43.7937Z" fill="white"/>
<path d="M31.2437 31.8709C33.5126 31.8709 35.4652 33.2245 36.3381 35.1683C36.6513 35.8655 36.8254 36.6388 36.8254 37.4525C36.8254 40.5352 34.3263 43.0342 31.2437 43.0342C28.1611 43.0342 25.6621 40.5352 25.6621 37.4525C25.6621 35.6284 26.5371 34.0086 27.8905 32.9899C28.8242 32.2873 29.9853 31.8709 31.2437 31.8709ZM31.2437 30.3481C30.4608 30.3481 29.6907 30.4749 28.9551 30.7252C28.2436 30.9672 27.5775 31.3198 26.975 31.7733C26.1142 32.4212 25.4011 33.2696 24.9126 34.2272C24.4069 35.2183 24.1396 36.3338 24.1396 37.4525C24.1396 38.411 24.3277 39.3413 24.6984 40.2184C25.0562 41.0646 25.5683 41.8242 26.2203 42.4762C26.8724 43.1283 27.632 43.6403 28.4782 43.9981C29.3549 44.3691 30.2856 44.557 31.244 44.557C32.2024 44.557 33.1331 44.3688 34.0098 43.9981C34.856 43.6403 35.6156 43.1283 36.2677 42.4762C36.9197 41.8242 37.4318 41.0646 37.7896 40.2186C38.1606 39.3419 38.3484 38.4112 38.3484 37.4528C38.3484 36.4402 38.1394 35.4617 37.7274 34.5446C37.1741 33.3122 36.2839 32.2661 35.1536 31.5202C33.9922 30.7538 32.6405 30.3487 31.2443 30.3487L31.2437 30.3481Z" fill="#1F1F1F"/>
<path d="M36.3378 35.1661C35.738 36.8684 34.1157 38.0881 32.2083 38.0881C29.7906 38.0881 27.8309 36.1283 27.8309 33.7107C27.8309 33.4643 27.8512 33.2228 27.8903 32.9877C28.8239 32.285 29.985 31.8687 31.2435 31.8687C33.5124 31.8687 35.465 33.2223 36.3378 35.1661Z" fill="#1F1F1F"/>
<path d="M43.0081 45.3553L43.5917 57.9028C43.6535 59.2352 44.7519 60.2839 46.086 60.2839C47.4251 60.2839 48.5257 59.2278 48.5809 57.8899L49.1403 44.3408L43.0081 45.3553Z" fill="#F464BA"/>
<path d="M55.5956 42.0386L56.0499 51.8079C56.098 52.8455 56.9533 53.6618 57.992 53.6618C59.0346 53.6618 59.8916 52.8395 59.9345 51.7978L60.3701 41.2485L55.5956 42.0386Z" fill="#F464BA"/>
<path d="M10.2433 43.9286L11.2551 50.3895C11.3032 51.0696 12.1585 51.6048 13.1973 51.6048C14.2398 51.6048 15.0968 51.0658 15.1397 50.3829L15.5753 43.4683L10.2433 43.9286Z" fill="#F464BA"/>
<path d="M22.8123 59.7115C20.8099 59.7115 19.1807 58.0824 19.1807 56.08V52.2331C19.1807 50.2307 20.8099 48.6016 22.8123 48.6016C24.8146 48.6016 26.4438 50.2307 26.4438 52.2331V56.08C26.4438 58.0824 24.8146 59.7115 22.8123 59.7115Z" fill="#F464BA"/>
<path d="M22.8123 49.7018C24.2105 49.7018 25.3438 50.8351 25.3438 52.2333V56.0802C25.3438 57.4783 24.2105 58.6117 22.8123 58.6117C21.4141 58.6117 20.2808 57.4783 20.2808 56.0802V52.2333C20.2808 50.8351 21.4141 49.7018 22.8123 49.7018ZM22.8123 47.5017C22.1746 47.5017 21.5547 47.6271 20.97 47.8743C20.4062 48.1128 19.9005 48.4535 19.4668 48.8875C19.0331 49.3212 18.6921 49.8272 18.4536 50.3907C18.2064 50.9754 18.081 51.5953 18.081 52.233V56.0799C18.081 56.7177 18.2064 57.3375 18.4536 57.9222C18.6921 58.486 19.0328 58.9917 19.4668 59.4254C19.9008 59.8591 20.4065 60.2002 20.97 60.4386C21.5547 60.6858 22.1746 60.8112 22.8123 60.8112C23.4501 60.8112 24.0699 60.6858 24.6546 60.4386C25.2184 60.2002 25.7241 59.8594 26.1578 59.4254C26.5915 58.9917 26.9326 58.4857 27.171 57.9222C27.4182 57.3375 27.5436 56.7177 27.5436 56.0799V52.233C27.5436 51.5953 27.4182 50.9754 27.171 50.3907C26.9326 49.8269 26.5918 49.3212 26.1578 48.8875C25.7241 48.4535 25.2181 48.1128 24.6546 47.8743C24.0699 47.6271 23.4501 47.5017 22.8123 47.5017Z" fill="#1F1F1F"/>
<path d="M61.2262 43.4915L60.6616 51.4512C60.6036 52.659 59.7978 53.7134 58.6375 54.0547C58.4181 54.1193 58.1969 54.1554 57.983 54.1554C57.8672 54.1554 57.7503 54.1466 57.634 54.1298C56.4176 53.9538 55.3902 52.9557 55.3145 51.7289C55.1209 48.5899 55.1055 46.5336 54.9204 45.8192" stroke="#1F1F1F" stroke-width="2.2001" stroke-miterlimit="10"/>
<path d="M49.6265 44.4259C49.2143 44.5865 49.0105 45.0507 49.1708 45.463C49.2286 45.6115 49.3259 45.733 49.4458 45.8202L49.3881 54.4826C48.2767 65.2556 43.8067 58.7263 43.7294 58.6124C43.7775 58.6608 45.2252 60.1099 46.3665 59.2581C47.5271 58.3921 47.0975 46.4417 47.3538 45.2234C47.4286 44.8681 47.5878 44.5221 47.7762 44.21C48.1788 43.5431 48.7443 42.9892 49.4112 42.5869C56.5711 38.2672 52.3766 28.6234 52.3494 28.5835C54.5547 29.9935 54.9345 31.5784 55.143 34.601C55.3941 38.5282 53.4343 42.9254 49.6265 44.4256V44.4259Z" fill="#E53CA9"/>
<path d="M50.2243 45.0007L49.49 57.6535C49.416 59.1944 48.388 60.5392 46.9082 60.9746C46.6282 61.0568 46.3461 61.103 46.0733 61.103C45.9253 61.103 45.7765 61.0917 45.6283 61.0703C44.0767 60.8456 42.9073 59.5412 42.8108 57.9764C42.5638 53.9722 42.1607 49.8245 41.9137 45.8203" stroke="#1F1F1F" stroke-width="2.2001" stroke-miterlimit="10"/>
<path d="M53.1927 44.0106C52.3369 44.823 51.3202 45.4855 50.2086 45.9181C50.1563 45.9384 50.1035 45.953 50.0504 45.9618C49.8346 45.9989 49.6165 45.9445 49.4449 45.8199C49.325 45.7327 49.2276 45.6112 49.1698 45.4627C49.0095 45.0504 49.2133 44.5862 49.6255 44.4256C53.4334 42.9254 55.3931 38.5282 55.142 34.601C54.9336 31.5784 53.5838 29.2671 51.3785 27.8572C50.3455 27.1963 49.125 26.7337 47.7464 26.4879C47.4818 26.4386 47.308 26.1801 47.363 25.9164C47.4095 25.6925 47.6045 25.5374 47.8234 25.5322C48.9575 25.505 50.1217 25.6862 51.2245 26.1067C54.6976 27.4097 56.612 30.9238 56.758 34.5067C56.9293 37.9765 55.7407 41.5781 53.1927 44.0106Z" fill="#1F1F1F"/>
<path d="M63.4229 25.0891L63.3652 26.8313V26.8322C63.2049 28.1121 62.786 29.3592 62.1312 30.4923C61.9879 30.7404 61.9879 31.0459 62.1312 31.294C62.5718 32.0566 62.9056 32.8706 63.1257 33.7113C62.8836 32.8544 60.3703 30.1529 60.3703 30.1529C62.7401 29.5405 63.2962 25.9991 63.4117 24.915C63.4161 24.9728 63.4199 25.0308 63.4229 25.0891Z" fill="#E53CA9"/>
<path d="M60.2862 43.2796C60.2862 43.2796 61.6766 42.0211 62.2454 40.791L59.3781 43.4925C59.3781 43.4925 59.1262 51.5501 58.7304 52.7904C58.7304 52.7904 59.5794 52.4293 59.6374 51.0754L60.2865 43.2796H60.2862Z" fill="#E53CA9"/>
<path d="M15.7006 45.2354C15.317 45.4243 15.2064 45.7887 15.1682 46.2147L14.8324 49.9582C14.8324 49.9582 14.847 51.5128 14.0759 51.7933C14.0759 51.7933 13.1315 51.399 12.5938 51.13C12.5938 51.13 14.0613 51.0098 14.2365 49.9114C14.3643 49.1103 14.4732 47.1794 14.5228 46.1927C14.5409 45.8305 14.7835 45.5186 15.13 45.4114L15.7006 45.2351V45.2354Z" fill="#E53CA9"/>
<path d="M16.1544 46.2969L15.9619 49.9133C15.9033 50.9966 15.3909 52.1139 14.2177 52.42C13.9958 52.4778 13.7722 52.5102 13.5558 52.5102C13.4386 52.5102 13.1507 52.5042 13.0333 52.4893C11.8031 52.3315 10.9641 51.3445 10.8169 50.2518C10.4498 47.5215 10.7006 49.5869 10.5045 46.7718" stroke="#1F1F1F" stroke-width="2.33623" stroke-miterlimit="10" stroke-linecap="round"/>
</svg>
