<svg width="168" height="64" viewBox="0 0 168 64" fill="none" xmlns="http://www.w3.org/2000/svg">
<path d="M64.8247 31.8928C65.7166 33.4361 66.2399 35.2251 66.2399 37.1367C66.2399 42.9255 61.546 47.6197 55.7518 47.6197C54.1443 47.6197 52.6279 47.2511 51.266 46.6051C49.9097 47.2514 48.393 47.6197 46.7855 47.6197C44.2862 47.6197 41.9953 46.744 40.1904 45.2859C38.3907 46.7437 36.0999 47.6197 33.6006 47.6197C29.3338 47.6197 25.6703 45.0725 24.0362 41.4143C22.3968 45.0722 18.7334 47.6197 14.4666 47.6197C8.67781 47.6197 3.97839 42.9257 3.97839 37.1367C3.97839 35.93 4.18135 34.7656 4.5606 33.687C5.40434 31.2732 7.10776 29.2653 9.29742 28.0211C7.82362 26.5526 6.91031 24.5233 6.91031 22.275C6.91031 17.8 10.5364 14.174 15.0114 14.174C15.6681 14.174 16.3036 14.2595 16.9125 14.4088C16.9018 14.2114 16.8803 14.0244 16.8803 13.8269C16.8803 8.16632 21.4728 3.5791 27.1281 3.5791C29.8783 3.5791 32.3616 4.66843 34.204 6.42548C36.1959 5.43764 38.4441 4.88211 40.815 4.88211C43.1859 4.88211 45.4396 5.43736 47.4315 6.42548C51.3084 8.3426 54.2348 11.8991 55.3029 16.1873C55.4525 16.1766 55.6022 16.1607 55.7515 16.1607C61.5455 16.1607 66.2396 20.8601 66.2396 26.6488C66.2396 28.5607 65.7163 30.3497 64.8244 31.8928H64.8247Z" fill="#FCA2DC"/>
<path d="M16.1875 22.9629C21.591 25.8992 22.9693 29.4911 20.0602 33.7813L23.8301 30.5695C23.8301 30.5695 24.8892 25.7765 24.7833 25.1146C24.6774 24.4526 24.2443 21.906 24.2443 21.906C24.2443 21.906 20.1169 24.413 16.1875 22.9632V22.9629Z" fill="#F464BA"/>
<path d="M64.8247 31.8933C65.7166 33.4367 66.2399 35.2256 66.2399 37.1373C66.2399 42.926 61.546 47.6202 55.7518 47.6202C54.1443 47.6202 52.6279 47.2517 51.266 46.6057C49.9097 47.2519 48.393 47.6202 46.7855 47.6202C44.2862 47.6202 41.9953 46.7446 40.1904 45.2864C38.3907 46.7443 36.0999 47.6202 33.6006 47.6202C29.3338 47.6202 25.6703 45.073 24.0362 41.4148C22.3968 45.0728 18.7334 47.6202 14.4666 47.6202C8.67781 47.6202 3.97839 42.9263 3.97839 37.1373C3.97839 35.9305 4.18135 34.7661 4.5606 33.6875C9.02488 46.771 23.2461 37.2173 23.2461 22.393L26.2954 20.3318L26.3435 24.0271L27.1287 28.2887L23.9619 33.6878C26.5627 43.2574 46.0757 40.1387 51.4211 27.8831C51.3304 27.8671 51.2396 27.8349 51.1489 27.7975C48.6603 26.7775 44.7193 26.8042 44.7193 26.8042L45.1679 25.5974C45.9156 22.7403 45.1731 20.2253 44.7353 19.1091C46.7432 22.8311 53.7175 21.5977 51.3626 13.8756C51.3591 13.8721 51.3573 13.8685 51.3573 13.8648C50.4976 11.5259 49.2106 9.04277 47.4323 6.42603C51.2184 8.29501 54.097 11.734 55.2237 15.8834L55.3038 16.1879C55.4534 16.1772 55.603 16.1612 55.7523 16.1612C61.5463 16.1612 66.2405 20.8606 66.2405 26.6494C66.2405 28.5613 65.7171 30.3502 64.8253 31.8933H64.8247Z" fill="#F464BA"/>
<path d="M67.0415 26.6491C67.0415 20.4767 62.0621 15.4454 55.9093 15.361C53.9515 8.68694 47.8363 4.08158 40.8157 4.08158C38.5543 4.08158 36.3803 4.5491 34.3458 5.47232C32.3308 3.73093 29.7894 2.77856 27.1289 2.77856C21.1655 2.77856 16.2904 7.52749 16.0866 13.4422C15.7269 13.3963 15.3677 13.3734 15.0118 13.3734C10.1034 13.3734 6.10995 17.3669 6.10995 22.2756C6.10995 24.3272 6.79831 26.2724 8.06667 27.8487C5.0286 29.9427 3.17804 33.418 3.17804 37.1373C3.17804 43.3592 8.2424 48.4211 14.4673 48.4211C18.3835 48.4211 21.9919 46.3807 24.0358 43.1139C26.0759 46.3807 29.6827 48.4211 33.6011 48.4211C35.964 48.4211 38.2801 47.6697 40.1909 46.2941C42.1212 47.6879 44.3882 48.4211 46.7863 48.4211C48.3401 48.4211 49.8455 48.1065 51.2671 47.4855C52.6933 48.1065 54.2003 48.4211 55.7522 48.4211C61.9772 48.4211 67.0415 43.3592 67.0415 37.1373C67.0415 35.3192 66.5927 33.5159 65.7399 31.8931C66.5927 30.2705 67.0415 28.4672 67.0415 26.6491ZM55.7522 46.8191C54.3145 46.8191 52.9207 46.5037 51.61 45.8816C51.5014 45.8302 51.3839 45.8043 51.2665 45.8043C51.1491 45.8043 51.0311 45.8304 50.9219 45.8821C49.6173 46.504 48.2257 46.8191 46.7863 46.8191C44.5468 46.8191 42.4405 46.0736 40.6942 44.6633C40.4002 44.4257 39.9803 44.426 39.6868 44.6638C37.9463 46.0738 35.8421 46.8191 33.6011 46.8191C29.7905 46.8191 26.3234 44.5695 24.7682 41.0881C24.6395 40.7996 24.3532 40.614 24.0375 40.6137H24.0369C23.7212 40.6137 23.4349 40.7991 23.306 41.0873C21.7453 44.5692 18.276 46.8191 14.4673 46.8191C9.12574 46.8191 4.77999 42.4758 4.77999 37.1373C4.77999 33.6636 6.66273 30.4377 9.69309 28.7183C9.9109 28.5948 10.0583 28.3765 10.0919 28.1284C10.1251 27.8804 10.0407 27.6309 9.86333 27.4541C8.47589 26.0719 7.7119 24.2326 7.7119 22.2756C7.7119 18.2502 10.9868 14.9754 15.0118 14.9754C15.5742 14.9754 16.1496 15.0466 16.7219 15.1874C16.9686 15.2479 17.2287 15.188 17.4243 15.0263C17.6195 14.8643 17.7268 14.6195 17.713 14.3662C17.7092 14.2934 17.7039 14.2221 17.6984 14.1509C17.6902 14.0362 17.6819 13.9279 17.6819 13.8272C17.6819 8.61846 21.9199 4.38051 27.1289 4.38051C29.5603 4.38051 31.8767 5.31281 33.6519 7.00551C33.8956 7.23817 34.2589 7.29317 34.5606 7.14357C36.5137 6.1747 38.6181 5.68352 40.8157 5.68352C47.319 5.68352 52.957 10.0826 54.5265 16.3812C54.6206 16.7588 54.972 17.0154 55.3606 16.9866L55.4797 16.9775C55.5787 16.9695 55.6722 16.9621 55.7522 16.9621C60.8469 16.9621 65.0356 20.9151 65.4121 25.9151C65.4165 25.9729 65.4203 26.0309 65.4233 26.0892C65.4341 26.2746 65.4396 26.4613 65.4396 26.6491C65.4396 27.0449 65.4148 27.4398 65.3656 27.8314V27.8322C65.2053 29.1121 64.7864 30.3593 64.1316 31.4924C63.9883 31.7404 63.9883 32.046 64.1316 32.294C64.5722 33.0567 64.906 33.8707 65.126 34.7114C65.1269 34.7136 65.1274 34.7155 65.1277 34.7177C65.1302 34.726 65.1321 34.734 65.134 34.7417C65.1346 34.7444 65.1354 34.7472 65.136 34.7499C65.3367 35.5296 65.4396 36.3321 65.4396 37.1373C65.4396 42.4758 61.0938 46.8191 55.7522 46.8191Z" fill="#1F1F1F"/>
<path d="M68.1042 26.649C68.1042 20.1551 63.0673 14.8157 56.695 14.3333C55.6533 11.3244 53.7491 8.63013 51.2333 6.63876C48.2414 4.2709 44.6393 3.01904 40.8163 3.01904C38.6616 3.01904 36.5088 3.43981 34.5207 4.24313C32.4031 2.6057 29.8221 1.71631 27.1295 1.71631C20.9648 1.71631 15.8608 6.34615 15.1128 12.3117C15.0795 12.3112 15.046 12.3112 15.0124 12.3112C9.51821 12.3112 5.04843 16.781 5.04843 22.2754C5.04843 24.2005 5.5902 26.042 6.60143 27.6264C3.79409 29.9497 2.11652 33.4327 2.11652 37.1371C2.11652 43.9448 7.6572 49.483 14.4679 49.483C18.2251 49.483 21.7236 47.7664 24.0359 44.9343C26.3451 47.7664 29.8425 49.483 33.6016 49.483C35.9368 49.483 38.2301 48.8125 40.1929 47.5736C42.1589 48.8125 44.4534 49.483 46.7868 49.483C48.3343 49.483 49.8381 49.1981 51.2682 48.6351C52.7024 49.1981 54.207 49.483 55.7528 49.483C62.5635 49.483 68.1042 43.9448 68.1042 37.1371C68.1042 35.33 67.6994 33.5364 66.9263 31.8929C67.6994 30.2497 68.1042 28.4561 68.1042 26.649ZM55.7528 47.6198C54.1454 47.6198 52.6289 47.2516 51.2671 46.6053C49.9107 47.2516 48.394 47.6198 46.7868 47.6198C44.2875 47.6198 41.9967 46.7442 40.1915 45.2863C38.3918 46.7442 36.1009 47.6198 33.6016 47.6198C29.3351 47.6198 25.6716 45.0726 24.0375 41.4147C22.3979 45.0726 18.7347 47.6198 14.4679 47.6198C8.67915 47.6198 3.97973 42.9259 3.97973 37.1371C3.97973 33.2281 6.12648 29.821 9.29848 28.0216C7.82468 26.5527 6.91136 24.5237 6.91136 22.2754C6.91136 17.8002 10.5374 14.1741 15.0124 14.1741C15.6694 14.1741 16.305 14.2596 16.9136 14.4092C16.9029 14.2115 16.8817 14.0248 16.8817 13.827C16.8817 8.16646 21.4741 3.57925 27.1295 3.57925C29.8796 3.57925 32.363 4.66857 34.2053 6.42563C36.1972 5.43778 38.4452 4.88226 40.8163 4.88226C47.8121 4.88226 53.6861 9.69388 55.3043 16.1875C55.4539 16.1768 55.6035 16.1608 55.7528 16.1608C61.5471 16.1608 66.241 20.8602 66.241 26.649C66.241 28.2262 65.8848 29.72 65.2589 31.0613C65.1264 31.3456 64.9817 31.6231 64.8258 31.8929C64.9616 32.1283 65.089 32.3692 65.2075 32.6154C65.865 33.9847 66.241 35.5168 66.241 37.1371C66.241 42.9259 61.5471 47.6198 55.7528 47.6198Z" fill="#1F1F1F"/>
<path d="M34.544 7.15234C31.2529 8.77271 28.7145 11.7728 27.5322 15.2372C26.2894 18.7804 26.5004 22.6455 27.4822 26.2591C27.626 26.8427 26.801 27.1312 26.5554 26.5724C24.55 21.9378 24.6482 16.324 27.1854 11.8925C28.7013 9.20531 31.0375 6.97083 33.8655 5.70137C34.8316 5.30342 35.4727 6.66309 34.5442 7.15261L34.544 7.15234Z" fill="#1F1F1F"/>
<path d="M23.3083 41.7487C21.3898 37.7962 22.7041 31.991 26.3648 29.4751C26.9274 29.1185 27.5047 29.8915 27.0023 30.3285C25.5012 31.5826 24.6272 33.4865 24.2527 35.3868C23.8987 37.285 24.0167 39.3063 24.7636 41.0796C25.1415 42.0416 23.7953 42.6626 23.308 41.7487H23.3083Z" fill="#1F1F1F"/>
<path d="M43.0317 16.0577C45.1942 17.3736 46.2942 19.9497 46.4276 22.4091C46.6869 26.4939 44.0963 30.8314 40.1265 32.0604C39.6042 32.215 39.2616 31.528 39.6953 31.2046C40.8737 30.3567 41.9617 29.4486 42.8414 28.3117C44.5264 26.1058 45.1675 23.1143 44.4205 20.4348C44.0391 19.1048 43.3634 17.8865 42.4176 16.7978C42.0516 16.3844 42.5579 15.7744 43.0312 16.058L43.0317 16.0577Z" fill="#1F1F1F"/>
<path d="M54.056 28.2972C53.8206 25.4706 55.7872 22.4556 58.7329 22.1663C59.4067 22.1066 59.616 23.0477 58.9878 23.2823C57.9596 23.6426 57.1015 24.3092 56.5358 25.2266C55.9619 26.1328 55.705 27.2045 55.6566 28.2787C55.5837 29.2767 54.1495 29.2897 54.0557 28.2972H54.056Z" fill="#1F1F1F"/>
<path d="M39.6982 44.6553C41.339 43.3146 42.4871 41.6717 43.9136 40.0496C45.0868 38.7103 46.6371 37.7266 48.4436 37.5558C49.0187 37.4961 49.5866 37.4893 50.144 37.5333C50.4215 37.555 50.6289 37.7978 50.6072 38.0753C50.5874 38.3281 50.3839 38.5228 50.1383 38.5387C47.059 38.7494 45.8827 39.9853 44.1504 42.3289C43.1532 43.6463 42.0356 44.9358 40.6847 45.9179C39.8412 46.4995 38.9285 45.3346 39.6982 44.6556V44.6553Z" fill="#1F1F1F"/>
<path d="M14.1111 21.3022C15.7856 22.606 18.0212 23.0334 20.0805 22.6811C22.1115 22.3379 23.9744 21.2048 25.083 19.4664C25.6633 18.6222 26.9231 19.3705 26.4597 20.2854C26.1542 20.8434 25.7647 21.3574 25.325 21.82C23.5644 23.6521 20.9295 24.4876 18.4368 24.2541C16.5972 24.0922 14.7651 23.3298 13.4843 21.9875C13.0955 21.564 13.6559 20.9521 14.1108 21.3022H14.1111Z" fill="#1F1F1F"/>
<path d="M35.907 14.8925C33.0172 18.086 31.7543 21.0338 30.0927 19.5303C28.431 18.0268 29.4269 14.219 32.3167 11.0256C35.2065 7.83212 38.8961 6.46201 40.5577 7.9655C42.2194 9.469 38.7968 11.6988 35.907 14.8925Z" fill="white"/>
<path d="M12.7372 21.0996C11.1713 22.8299 10.2844 24.188 9.13453 23.1473C7.9847 22.1067 8.32187 19.8606 9.88779 18.13C11.4537 16.3996 13.6552 15.8402 14.805 16.8809C15.9548 17.9215 14.3031 19.3689 12.7372 21.0993V21.0996Z" fill="white"/>
<path d="M58.7852 27.4533C58.2646 28.7063 58.0434 29.6229 57.2107 29.2772C56.378 28.9312 56.1252 27.6351 56.6456 26.3822C57.1662 25.1292 58.2629 24.3938 59.0956 24.7398C59.9284 25.0857 59.3055 26.2004 58.7849 27.4533H58.7852Z" fill="#FFABE3"/>
<path d="M13.4826 43.7278C11.7883 43.7278 10.1954 43.068 8.99742 41.8701C7.79947 40.6721 7.13971 39.0792 7.13971 37.3849C7.13971 35.6905 7.79947 34.0977 8.99742 32.8997C10.1954 31.7017 11.7883 31.042 13.4826 31.042C15.177 31.042 16.7698 31.7017 17.9678 32.8997C19.1657 34.0977 19.8255 35.6905 19.8255 37.3849C19.8255 39.0792 19.1657 40.6721 17.9678 41.8701C16.7698 43.068 15.177 43.7278 13.4826 43.7278Z" fill="white"/>
<path d="M13.4828 31.8035C16.5654 31.8035 19.0645 34.3025 19.0645 37.3852C19.0645 40.4678 16.5654 42.9668 13.4828 42.9668C10.4002 42.9668 7.90116 40.4678 7.90116 37.3852C7.90116 34.3025 10.4002 31.8035 13.4828 31.8035ZM13.4828 30.2808C12.5244 30.2808 11.5938 30.4689 10.717 30.8396C9.87081 31.1974 9.11122 31.7095 8.45916 32.3615C7.80711 33.0136 7.29504 33.7731 6.93724 34.6194C6.56625 35.4961 6.37842 36.4267 6.37842 37.3852C6.37842 38.3436 6.56653 39.2742 6.93724 40.151C7.29504 40.9972 7.80711 41.7568 8.45916 42.4088C9.11122 43.0609 9.87081 43.573 10.717 43.9307C11.5938 44.3017 12.5244 44.4896 13.4828 44.4896C14.4412 44.4896 15.3719 44.3015 16.2486 43.9307C17.0948 43.573 17.8544 43.0609 18.5062 42.4088C19.1583 41.7568 19.6703 40.9972 20.0281 40.151C20.3991 39.2742 20.587 38.3436 20.587 37.3852C20.587 36.4267 20.3988 35.4961 20.0281 34.6194C19.6703 33.7731 19.1583 33.0136 18.5062 32.3615C17.8542 31.7095 17.0946 31.1974 16.2486 30.8396C15.3719 30.4686 14.4412 30.2808 13.4828 30.2808Z" fill="#1F1F1F"/>
<path d="M12.243 43.2845C14.6605 43.2845 16.6204 41.3247 16.6204 38.9072C16.6204 36.4896 14.6605 34.5298 12.243 34.5298C9.82542 34.5298 7.8656 36.4896 7.8656 38.9072C7.8656 41.3247 9.82542 43.2845 12.243 43.2845Z" fill="#1F1F1F"/>
<path d="M33.2438 44.7937C31.5494 44.7937 29.9565 44.134 28.7586 42.936C27.5606 41.7381 26.9009 40.1452 26.9009 38.4508C26.9009 37.4517 27.1393 36.4559 27.5909 35.5715C28.0271 34.7164 28.664 33.9585 29.4329 33.3799C30.5387 32.5477 31.8566 32.1077 33.2441 32.1077C35.7384 32.1077 38.0108 33.5784 39.0328 35.8544C39.4005 36.6726 39.5869 37.5463 39.5869 38.4506C39.5869 40.1449 38.9272 41.7378 37.7292 42.9357C36.5313 44.1337 34.9384 44.7935 33.2441 44.7935L33.2438 44.7937Z" fill="white"/>
<path d="M33.2437 32.8709C35.5126 32.8709 37.4652 34.2245 38.3381 36.1683C38.6513 36.8655 38.8254 37.6388 38.8254 38.4525C38.8254 41.5352 36.3263 44.0342 33.2437 44.0342C30.1611 44.0342 27.6621 41.5352 27.6621 38.4525C27.6621 36.6284 28.5371 35.0086 29.8905 33.9899C30.8242 33.2873 31.9853 32.8709 33.2437 32.8709ZM33.2437 31.3481C32.4608 31.3481 31.6907 31.4749 30.9551 31.7252C30.2436 31.9672 29.5775 32.3198 28.975 32.7733C28.1142 33.4212 27.4011 34.2696 26.9126 35.2272C26.4069 36.2183 26.1396 37.3338 26.1396 38.4525C26.1396 39.411 26.3277 40.3413 26.6984 41.2184C27.0562 42.0646 27.5683 42.8242 28.2203 43.4762C28.8724 44.1283 29.632 44.6403 30.4782 44.9981C31.3549 45.3691 32.2856 45.557 33.244 45.557C34.2024 45.557 35.1331 45.3688 36.0098 44.9981C36.856 44.6403 37.6156 44.1283 38.2677 43.4762C38.9197 42.8242 39.4318 42.0646 39.7896 41.2186C40.1606 40.3419 40.3484 39.4112 40.3484 38.4528C40.3484 37.4402 40.1394 36.4617 39.7274 35.5446C39.1741 34.3122 38.2839 33.2661 37.1536 32.5202C35.9922 31.7538 34.6405 31.3487 33.2443 31.3487L33.2437 31.3481Z" fill="#1F1F1F"/>
<path d="M38.3378 36.1661C37.738 37.8684 36.1157 39.0881 34.2083 39.0881C31.7906 39.0881 29.8309 37.1283 29.8309 34.7107C29.8309 34.4643 29.8512 34.2228 29.8903 33.9877C30.8239 33.285 31.985 32.8687 33.2435 32.8687C35.5124 32.8687 37.465 34.2223 38.3378 36.1661Z" fill="#1F1F1F"/>
<path d="M45.0081 46.3553L45.5917 58.9028C45.6535 60.2352 46.7519 61.2839 48.086 61.2839C49.4251 61.2839 50.5257 60.2278 50.5809 58.8899L51.1403 45.3408L45.0081 46.3553Z" fill="#F464BA"/>
<path d="M57.5956 43.0386L58.0499 52.8079C58.098 53.8455 58.9533 54.6618 59.992 54.6618C61.0346 54.6618 61.8916 53.8395 61.9345 52.7978L62.3701 42.2485L57.5956 43.0386Z" fill="#F464BA"/>
<path d="M12.2433 44.9286L13.2551 51.3895C13.3032 52.0696 14.1585 52.6048 15.1973 52.6048C16.2398 52.6048 17.0968 52.0658 17.1397 51.3829L17.5753 44.4683L12.2433 44.9286Z" fill="#F464BA"/>
<path d="M24.8123 60.7115C22.8099 60.7115 21.1807 59.0824 21.1807 57.08V53.2331C21.1807 51.2307 22.8099 49.6016 24.8123 49.6016C26.8146 49.6016 28.4438 51.2307 28.4438 53.2331V57.08C28.4438 59.0824 26.8146 60.7115 24.8123 60.7115Z" fill="#F464BA"/>
<path d="M24.8123 50.7018C26.2105 50.7018 27.3438 51.8351 27.3438 53.2333V57.0802C27.3438 58.4783 26.2105 59.6117 24.8123 59.6117C23.4141 59.6117 22.2808 58.4783 22.2808 57.0802V53.2333C22.2808 51.8351 23.4141 50.7018 24.8123 50.7018ZM24.8123 48.5017C24.1746 48.5017 23.5547 48.6271 22.97 48.8743C22.4062 49.1128 21.9005 49.4535 21.4668 49.8875C21.0331 50.3212 20.6921 50.8272 20.4536 51.3907C20.2064 51.9754 20.081 52.5953 20.081 53.233V57.0799C20.081 57.7177 20.2064 58.3375 20.4536 58.9222C20.6921 59.486 21.0328 59.9917 21.4668 60.4254C21.9008 60.8591 22.4065 61.2002 22.97 61.4386C23.5547 61.6858 24.1746 61.8112 24.8123 61.8112C25.4501 61.8112 26.0699 61.6858 26.6546 61.4386C27.2184 61.2002 27.7241 60.8594 28.1578 60.4254C28.5915 59.9917 28.9326 59.4857 29.171 58.9222C29.4182 58.3375 29.5436 57.7177 29.5436 57.0799V53.233C29.5436 52.5953 29.4182 51.9754 29.171 51.3907C28.9326 50.8269 28.5918 50.3212 28.1578 49.8875C27.7241 49.4535 27.2181 49.1128 26.6546 48.8743C26.0699 48.6271 25.4501 48.5017 24.8123 48.5017Z" fill="#1F1F1F"/>
<path d="M63.2262 44.4915L62.6616 52.4512C62.6036 53.659 61.7978 54.7134 60.6375 55.0547C60.4181 55.1193 60.1969 55.1554 59.983 55.1554C59.8672 55.1554 59.7503 55.1466 59.634 55.1298C58.4176 54.9538 57.3902 53.9557 57.3145 52.7289C57.1209 49.5899 57.1055 47.5336 56.9204 46.8192" stroke="#1F1F1F" stroke-width="2.2001" stroke-miterlimit="10"/>
<path d="M51.6265 45.4259C51.2143 45.5865 51.0105 46.0507 51.1708 46.463C51.2286 46.6115 51.3259 46.733 51.4458 46.8202L51.3881 55.4826C50.2767 66.2556 45.8067 59.7263 45.7294 59.6124C45.7775 59.6608 47.2252 61.1099 48.3665 60.2581C49.5271 59.3921 49.0975 47.4417 49.3538 46.2234C49.4286 45.8681 49.5878 45.5221 49.7762 45.21C50.1788 44.5431 50.7443 43.9892 51.4112 43.5869C58.5711 39.2672 54.3766 29.6234 54.3494 29.5835C56.5547 30.9935 56.9345 32.5784 57.143 35.601C57.3941 39.5282 55.4343 43.9254 51.6265 45.4256V45.4259Z" fill="#E53CA9"/>
<path d="M52.2243 46.0007L51.49 58.6535C51.416 60.1944 50.388 61.5392 48.9082 61.9746C48.6282 62.0568 48.3461 62.103 48.0733 62.103C47.9253 62.103 47.7765 62.0917 47.6283 62.0703C46.0767 61.8456 44.9073 60.5412 44.8108 58.9764C44.5638 54.9722 44.1607 50.8245 43.9137 46.8203" stroke="#1F1F1F" stroke-width="2.2001" stroke-miterlimit="10"/>
<path d="M55.1927 45.0106C54.3369 45.823 53.3202 46.4855 52.2086 46.9181C52.1563 46.9384 52.1035 46.953 52.0504 46.9618C51.8346 46.9989 51.6165 46.9445 51.4449 46.8199C51.325 46.7327 51.2276 46.6112 51.1698 46.4627C51.0095 46.0504 51.2133 45.5862 51.6255 45.4256C55.4334 43.9254 57.3931 39.5282 57.142 35.601C56.9336 32.5784 55.5838 30.2671 53.3785 28.8572C52.3455 28.1963 51.125 27.7337 49.7464 27.4879C49.4818 27.4386 49.308 27.1801 49.363 26.9164C49.4095 26.6925 49.6045 26.5374 49.8234 26.5322C50.9575 26.505 52.1217 26.6862 53.2245 27.1067C56.6976 28.4097 58.612 31.9238 58.758 35.5067C58.9293 38.9765 57.7407 42.5781 55.1927 45.0106Z" fill="#1F1F1F"/>
<path d="M65.4229 26.0891L65.3652 27.8313V27.8322C65.2049 29.1121 64.786 30.3592 64.1312 31.4923C63.9879 31.7404 63.9879 32.0459 64.1312 32.294C64.5718 33.0566 64.9056 33.8706 65.1257 34.7113C64.8836 33.8544 62.3703 31.1529 62.3703 31.1529C64.7401 30.5405 65.2962 26.9991 65.4117 25.915C65.4161 25.9728 65.4199 26.0308 65.4229 26.0891Z" fill="#E53CA9"/>
<path d="M62.2862 44.2796C62.2862 44.2796 63.6766 43.0211 64.2454 41.791L61.3781 44.4925C61.3781 44.4925 61.1262 52.5501 60.7304 53.7904C60.7304 53.7904 61.5794 53.4293 61.6374 52.0754L62.2865 44.2796H62.2862Z" fill="#E53CA9"/>
<path d="M17.7006 46.2354C17.317 46.4243 17.2064 46.7887 17.1682 47.2147L16.8324 50.9582C16.8324 50.9582 16.847 52.5128 16.0759 52.7933C16.0759 52.7933 15.1315 52.399 14.5938 52.13C14.5938 52.13 16.0613 52.0098 16.2365 50.9114C16.3643 50.1103 16.4732 48.1794 16.5228 47.1927C16.5409 46.8305 16.7835 46.5186 17.13 46.4114L17.7006 46.2351V46.2354Z" fill="#E53CA9"/>
<path d="M18.1544 47.2969L17.9619 50.9133C17.9033 51.9966 17.3909 53.1139 16.2177 53.42C15.9958 53.4778 15.7722 53.5102 15.5558 53.5102C15.4386 53.5102 15.1507 53.5042 15.0333 53.4893C13.8031 53.3315 12.9641 52.3445 12.8169 51.2518C12.4498 48.5215 12.7006 50.5869 12.5045 47.7718" stroke="#1F1F1F" stroke-width="2.33623" stroke-miterlimit="10" stroke-linecap="round"/>
<path d="M141.279 26.8039C140.751 23.5078 139.026 20.8732 136.57 18.6827C135.951 18.1299 135.233 17.7232 134.436 17.4859C133.699 17.2656 132.957 17.0255 132.168 17.2997C131.909 17.391 131.614 17.3946 131.378 17.2216C130.912 16.8795 130.406 17.0148 129.927 17.1168C129.034 17.3068 128.167 17.5942 127.349 18.0081C123.978 19.714 121.676 22.3926 120.281 25.8663C118.992 29.0796 118.52 32.4581 118.356 35.8906C118.351 36.8536 118.438 37.8022 118.58 38.7543C119.039 41.8432 120.633 44.1726 123.253 45.8138C125.447 47.1873 127.779 47.388 130.205 46.5151C131.414 46.0803 132.536 45.4753 133.57 44.7108C136.068 42.861 138.022 40.5416 139.487 37.8046C141.338 34.342 141.898 30.6587 141.279 26.8039ZM133.29 24.997C132.649 24.8606 132.116 24.2542 132.031 23.5505C131.929 22.7117 132.203 22.0321 132.908 21.5453C133.02 21.4686 133.151 21.4175 133.263 21.3418C134.311 20.6284 135.163 21.2324 135.467 22.221C135.519 22.3926 135.547 22.5717 135.576 22.7042C135.525 23.3071 135.362 23.8244 135.06 24.2883C134.647 24.9203 134.038 25.1554 133.29 24.997Z" fill="#F464BA"/>
<path d="M124.823 17.4386C128.33 15.0375 134.53 13.8632 136.15 16.2305C137.771 18.5978 132.101 22.4172 128.593 24.8183C125.085 27.2195 121.745 27.7731 120.124 25.4058C118.504 23.0385 121.314 19.8398 124.822 17.4386H124.823Z" fill="#FFABE3"/>
<path d="M143.741 25.8466C143.446 24.2295 142.856 22.6559 141.989 21.1689C141.233 19.8728 140.264 18.6217 139.027 17.3449C137.121 15.3785 134.675 14.4229 131.548 14.4229C131.245 14.4229 130.93 14.4317 130.61 14.4495C128.575 14.5623 126.563 15.2872 124.458 16.6656C121.299 18.7326 119.005 21.692 117.639 25.461C116.525 28.5329 115.921 31.9403 115.794 35.878L115.791 35.9448L115.795 36.0119C115.802 36.1709 115.81 36.3323 115.817 36.4959C115.859 37.4629 115.906 38.5588 116.132 39.6817C116.557 41.7842 117.402 43.6234 118.643 45.1484C119.852 46.6326 121.454 47.8391 123.405 48.7348C124.612 49.2887 125.911 49.5698 127.267 49.5698C127.846 49.5698 128.446 49.5181 129.048 49.4163C131.218 49.0514 133.304 48.0946 135.425 46.4915C137.972 44.5676 140.079 42.0897 141.688 39.127C143.913 35.0298 144.604 30.5617 143.741 25.8466ZM130.206 46.4547C127.78 47.3276 125.448 47.1268 123.254 45.7534C120.634 44.1121 119.04 41.7828 118.581 38.6938C118.439 37.7417 118.352 36.7932 118.357 35.8301C118.521 32.3977 118.993 29.0192 120.282 25.8059C121.678 22.3322 123.979 19.6536 127.35 17.9477C128.168 17.5338 129.035 17.2464 129.928 17.0564C130.408 16.9543 130.913 16.819 131.379 17.1612C131.615 17.3341 131.91 17.3306 132.169 17.2393C132.958 16.9651 133.7 17.2052 134.438 17.4254C135.234 17.6628 135.952 18.0695 136.571 18.6223C139.027 20.8128 140.752 23.4474 141.28 26.7434C141.899 30.5983 141.339 34.2815 139.488 37.7442C138.023 40.4811 136.069 42.8006 133.571 44.6503C132.537 45.4149 131.415 46.0199 130.206 46.4547Z" fill="#1F1F1F"/>
<path d="M135.467 22.1603C135.519 22.3319 135.547 22.5109 135.576 22.6437C135.525 23.2463 135.362 23.7639 135.06 24.2278C134.647 24.8598 134.038 25.0946 133.29 24.9365C132.649 24.8001 132.116 24.1937 132.031 23.4899C131.93 22.6512 132.204 21.9716 132.908 21.4845C133.02 21.4078 133.151 21.3567 133.263 21.2813C134.311 20.5679 135.163 21.1719 135.466 22.1605L135.467 22.1603ZM134.314 23.7124C134.521 23.3984 134.635 23.0502 134.623 22.6861C134.612 22.3745 134.543 22.0445 134.12 21.9397C134.02 21.9749 133.884 21.9994 133.774 22.0676C133.507 22.2331 133.252 22.4193 132.985 22.6022C132.833 23.0562 132.82 23.3632 132.989 23.6626C133.307 24.2228 133.961 24.2446 134.314 23.7127V23.7124Z" fill="#1F1F1F"/>
<path d="M97.8285 41.0246C97.7262 42.2652 97.1795 43.3061 96.2178 44.1196C94.4618 45.6025 92.4847 46.6327 90.2186 47.0796C87.271 47.659 84.4219 47.2647 81.6179 46.2589C77.5403 44.7978 75.5555 40.4023 76.1096 36.6827C76.1935 36.1214 76.3836 35.5637 76.6088 35.0401C77.147 33.7885 78.1148 33.0823 79.4907 33.0592C80.8896 33.0361 82.0378 33.635 82.6406 34.8891C83.3345 36.3346 83.6975 37.8881 83.3725 39.5258C83.3128 39.8239 83.2787 40.1418 83.315 40.4413C83.3529 40.7372 83.5768 40.8712 83.9725 40.7724C84.769 38.7329 84.2418 36.7374 83.6329 34.608C84.2418 34.8635 84.6265 35.212 85.0646 35.4663C85.5616 35.7548 86.0596 36.0422 86.5684 36.309C87.0334 36.5537 87.5144 36.7704 87.8906 36.9531C88.2682 36.9225 88.4167 36.7936 88.4409 36.5304C88.3461 36.1981 88.0647 36.0689 87.7897 35.9204C86.974 35.4773 86.141 35.0621 85.358 34.5665C82.4993 32.7586 80.8616 30.1407 80.2992 26.8216C80.091 25.5895 80.0619 24.3682 80.2857 23.1312C80.6424 21.1673 81.5849 19.5673 83.1799 18.3803C85.0781 16.9668 87.2064 16.1849 89.5977 16.2336C92.1082 16.2836 94.2269 17.2954 96.0288 18.9854C97.1187 20.0068 97.5727 21.3439 97.5826 22.8146C97.5958 24.7238 97.0469 26.4784 95.99 28.066C95.7709 28.3947 95.5016 28.698 95.2181 28.9744C94.1637 29.9958 92.9011 30.1979 91.5579 29.583C90.5632 29.1265 89.8083 28.3996 89.1972 27.5072C88.6189 26.6635 88.1987 25.7367 87.7883 24.8066C87.6654 24.5277 87.5901 24.2087 87.1371 24.1248C86.8973 24.317 86.8437 24.5313 86.9215 24.7529C87.5194 26.4333 88.2768 28.0294 89.5866 29.2824C90.5376 30.1919 91.6578 30.8104 93.0106 30.8324C93.7886 30.8445 94.3523 31.2182 94.8614 31.7333C96.1993 33.0897 97.0406 34.726 97.5472 36.5452C97.9575 38.016 97.9514 39.522 97.8285 41.0246Z" fill="#F464BA"/>
<path d="M86.089 16.0877C90.0712 14.4472 94.057 13.7572 95.1471 16.4034C96.2373 19.0496 93.1065 21.4972 89.1243 23.1376C85.1422 24.7781 80.8214 25.583 79.7313 22.9369C78.6411 20.2907 82.1068 17.7279 86.089 16.0874V16.0877Z" fill="#FFABE3"/>
<path d="M87.5751 18.4454C87.4708 18.521 87.3465 18.6637 87.192 18.7138C86.6395 18.8925 86.1645 19.1929 85.7165 19.5518C85.5834 19.6585 85.425 19.7445 85.2647 19.8031C85.081 19.8702 84.9063 19.7847 84.8164 19.6279C84.7587 19.5276 84.7246 19.3328 84.7818 19.2597C85.3926 18.4767 86.142 17.8948 87.1788 17.8494C87.4783 17.8362 87.6397 18.0631 87.5753 18.4457L87.5751 18.4454Z" fill="white"/>
<path d="M82.3944 37.0685C82.3619 37.289 82.3176 37.4491 82.1364 37.5343C81.9571 37.6185 81.6788 37.5264 81.5971 37.305C81.3543 36.6477 81.0655 36.0256 80.5688 35.51C80.4577 35.3947 80.4742 35.1643 80.6423 35.0482C80.7391 34.9814 80.8801 34.9434 80.9976 34.9509C81.12 34.9588 81.2564 35.0127 81.3545 35.0884C82.0184 35.598 82.3402 36.288 82.3946 37.0685H82.3944Z" fill="white"/>
<path d="M99.5275 34.4717C98.9599 33.0034 98.1997 31.7238 97.2226 30.5992C97.6228 30.1903 97.9602 29.7629 98.2484 29.3031C99.7359 26.9341 100.335 24.3641 100.031 21.6649C99.8427 19.9956 99.2038 18.5911 98.1304 17.4891C96.9267 16.2554 95.594 15.3063 94.1697 14.6677C92.6852 14.0025 91.0821 13.665 89.4054 13.665C89.1064 13.665 88.8006 13.6758 88.4962 13.6972C86.2001 13.8584 84.0168 14.6523 82.0067 16.0571C79.7805 17.6142 78.3897 19.6903 77.8727 22.2284C77.293 25.0778 77.5856 27.8794 78.7417 30.58C78.2118 30.6405 77.7104 30.767 77.2446 30.9587C76.5906 31.2276 76.004 31.625 75.5007 32.1396C74.6815 32.9781 74.0819 34.1329 73.7195 35.5717L73.7162 35.5852C73.6865 35.7073 73.6719 35.8099 73.6623 35.8776C73.6614 35.8836 73.6606 35.8894 73.6598 35.8952C73.3441 37.323 73.346 38.7556 73.6658 40.1532C74.1092 42.0939 74.85 43.7583 75.8676 45.1001C76.9965 46.5888 78.494 47.7259 80.3184 48.48C82.5688 49.4096 84.915 49.8809 87.2913 49.8809C88.6067 49.8809 89.954 49.736 91.295 49.4503C92.5265 49.1884 93.7346 48.7443 94.8861 48.1299C95.9364 47.5694 96.9712 46.8503 97.9616 45.9925C99.1868 44.9315 99.9505 43.6359 100.232 42.1412C100.723 39.5333 100.486 36.9531 99.5275 34.4717ZM97.8287 41.0241C97.7264 42.2647 97.1797 43.3056 96.218 44.1191C94.462 45.602 92.485 46.6322 90.2189 47.0791C87.2713 47.6586 84.4221 47.2642 81.6181 46.2585C77.5405 44.7973 75.5557 40.4018 76.1099 36.6822C76.1938 36.1209 76.3838 35.5632 76.609 35.0396C77.1472 33.788 78.115 33.0818 79.4909 33.0587C80.8899 33.0356 82.038 33.6345 82.6409 34.8886C83.3347 36.3341 83.6978 37.8876 83.3727 39.5253C83.313 39.8234 83.2789 40.1413 83.3152 40.4408C83.3532 40.7368 83.577 40.8707 83.9728 40.772C84.7692 38.7325 84.242 36.737 83.6331 34.6075C84.242 34.863 84.6267 35.2115 85.0648 35.4659C85.5618 35.7543 86.0598 36.0417 86.5686 36.3085C87.0337 36.5533 87.5147 36.77 87.8909 36.9526C88.2685 36.9221 88.417 36.7931 88.4412 36.5299C88.3463 36.1977 88.065 36.0684 87.7899 35.9199C86.9743 35.4769 86.1412 35.0616 85.3583 34.566C82.4995 32.7581 80.8618 30.1402 80.2994 26.8211C80.0912 25.589 80.0621 24.3677 80.2859 23.1307C80.6426 21.1668 81.5851 19.5668 83.1802 18.3799C85.0783 16.9663 87.2066 16.1844 89.5979 16.2331C92.1085 16.2832 94.2272 17.2949 96.0291 18.9849C97.1189 20.0063 97.573 21.3434 97.5829 22.8142C97.5961 24.7233 97.0472 26.4779 95.9903 28.0655C95.7711 28.3942 95.5019 28.6975 95.2183 28.9739C94.1639 29.9953 92.9013 30.1974 91.5582 29.5825C90.5634 29.126 89.8085 28.3991 89.1975 27.5067C88.6191 26.663 88.1989 25.7362 87.7886 24.8061C87.6656 24.5272 87.5903 24.2082 87.1373 24.1243C86.8975 24.3166 86.8439 24.5308 86.9217 24.7525C87.5196 26.4328 88.277 28.029 89.5869 29.2819C90.5379 30.1914 91.658 30.8099 93.0108 30.8319C93.7888 30.844 94.3526 31.2177 94.8616 31.7328C96.1996 33.0892 97.0408 34.7255 97.5474 36.5447C97.9577 38.0155 97.9517 39.5215 97.8287 41.0241Z" fill="#1F1F1F"/>
<path d="M163.162 22.183C163.092 21.5598 162.874 20.9399 162.647 20.347C162.135 19.0052 161.192 18.0336 159.875 17.4712C157.985 16.6651 156.003 16.4544 153.977 16.7198C151.801 17.0047 150.014 18.0567 148.564 19.6638C145.257 23.33 142.958 27.5124 142.106 32.4264C141.794 34.226 141.591 36.034 141.44 37.8532C141.321 39.2668 141.267 40.6767 141.364 42.0878C141.42 42.9049 141.553 43.717 141.829 44.4986C142.165 45.4482 142.778 46.1473 143.665 46.6135C144.235 46.9118 144.838 47.131 145.466 47.2443C147.109 47.54 148.439 47.0507 149.35 45.6017C149.569 45.256 149.783 44.9029 149.965 44.5363C151.166 42.1329 151.713 39.5613 151.89 36.8986C151.898 36.7732 151.839 36.6418 151.802 36.4748C150.042 35.9927 148.337 35.3938 147.031 33.9824C147.195 33.549 147.413 33.4698 147.634 33.5759C147.917 33.7134 148.168 33.918 148.431 34.0957C150.809 35.7053 153.4 36.0524 156.142 35.3363C158.183 34.803 159.692 33.4992 160.867 31.8092C162.885 28.9089 163.558 25.6616 163.162 22.183ZM156.373 24.2871C155.625 23.6381 155.408 22.5531 155.876 21.6923C156.174 21.1456 156.6 20.7584 157.269 20.7512C157.54 20.7474 157.81 20.7499 158.124 20.7499C158.729 21.1676 159.014 21.6657 159.082 22.2853C159.142 22.8394 159.059 23.3727 158.78 23.8658C158.23 24.8399 157.214 25.0175 156.373 24.2871Z" fill="#F464BA"/>
<path d="M156.272 25.9771C156.953 26.1451 157.663 26.2763 158.395 26.2001C158.575 26.1814 158.716 26.3536 158.735 26.5299C158.747 26.6371 158.663 26.7653 158.596 26.8673C158.552 26.9344 158.469 26.9897 158.392 27.0188C157.614 27.3131 156.872 27.2358 156.175 26.7774C155.961 26.6366 155.984 26.4259 156.272 25.9768V25.9771Z" fill="white"/>
<path d="M148.17 17.7553C151.678 15.3542 157.878 14.1799 159.498 16.5472C161.119 18.9145 155.449 22.7339 151.941 25.135C148.433 27.5361 145.093 28.0897 143.472 25.7224C141.852 23.3551 144.662 20.1564 148.17 17.7553H148.17Z" fill="#FFABE3"/>
<path d="M165.611 21.2551C165.317 19.6356 164.689 18.2564 163.741 17.1558C162.763 16.0178 161.459 15.1939 159.868 14.706L159.864 14.7052C159.618 14.6304 159.381 14.5682 159.152 14.5083C159.065 14.4854 158.978 14.4629 158.891 14.4395L158.888 14.4387C157.741 14.1331 156.641 14.0911 155.623 14.0911C155.367 14.0911 155.11 14.0938 154.862 14.0968L154.638 14.0993C153.358 14.1128 152.216 14.4392 151.467 14.684C149.639 15.2827 148.038 16.3863 146.429 18.158C145.064 19.6612 143.824 21.3869 142.636 23.4333C141.509 25.3762 140.665 27.4251 140.127 29.522C139.631 31.4526 139.277 33.4676 139.045 35.6807C138.795 38.0505 138.719 40.2308 138.811 42.3453C138.854 43.3373 139.045 44.3191 139.395 45.3449C139.685 46.1969 140.124 46.9468 140.7 47.5742C141.264 48.188 141.963 48.6885 142.779 49.0614C143.683 49.4745 144.568 49.7303 145.487 49.8436C145.798 49.8821 146.106 49.9013 146.402 49.9013C148.12 49.9013 149.579 49.2693 150.737 48.0233C151.229 47.4952 151.665 46.866 152.071 46.1004C152.825 44.6777 153.403 43.1341 153.839 41.3809C154.101 40.3223 154.239 39.2608 154.357 38.2243C155.394 38.1547 156.333 37.9856 157.229 37.7081C159.424 37.0252 161.272 35.6592 162.722 33.6486C164.058 31.7964 164.983 29.8196 165.47 27.7732C165.969 25.6798 166.016 23.4869 165.611 21.2551ZM160.866 31.809C159.691 33.499 158.181 34.8028 156.141 35.3361C153.399 36.0522 150.808 35.7051 148.43 34.0955C148.167 33.9178 147.916 33.7132 147.633 33.5757C147.412 33.4696 147.194 33.5488 147.03 33.9822C148.336 35.3936 150.041 35.9925 151.801 36.4746C151.838 36.6416 151.897 36.773 151.889 36.8984C151.712 39.5611 151.165 42.1327 149.964 44.5361C149.781 44.9027 149.568 45.2558 149.349 45.6015C148.438 47.0505 147.108 47.5398 145.465 47.2441C144.837 47.1308 144.234 46.9116 143.664 46.6133C142.777 46.1471 142.164 45.448 141.828 44.4984C141.552 43.7168 141.419 42.9047 141.363 42.0876C141.266 40.6766 141.32 39.2666 141.439 37.853C141.59 36.0338 141.793 34.2259 142.105 32.4262C142.957 27.5122 145.256 23.3298 148.563 19.6637C150.013 18.0565 151.8 17.0045 153.976 16.7196C156.002 16.4542 157.984 16.6649 159.874 17.471C161.191 18.0334 162.134 19.005 162.646 20.3468C162.873 20.9397 163.091 21.5596 163.161 22.1828C163.557 25.6614 162.884 28.9088 160.866 31.809Z" fill="#1F1F1F"/>
<path d="M159.081 22.285C159.141 22.8389 159.058 23.3724 158.779 23.8655C158.229 24.8396 157.213 25.0172 156.372 24.2868C155.624 23.6378 155.406 22.5528 155.875 21.6921C156.172 21.1453 156.598 20.7581 157.268 20.751C157.538 20.7474 157.809 20.7499 158.123 20.7499C158.728 21.1676 159.013 21.6654 159.081 22.2853V22.285ZM157.956 23.4697C158.208 23.0179 158.351 22.5468 158.066 22.0537C158.001 21.9418 157.889 21.8576 157.807 21.7699C157.416 21.7493 157.066 21.8161 156.739 21.9841C156.286 22.5685 156.467 23.0921 156.904 23.5707C157.197 23.8922 157.753 23.8325 157.956 23.4697H157.956Z" fill="#1F1F1F"/>
<path d="M153.677 19.2544C152.756 19.5938 151.831 19.9983 151.043 20.6603C150.849 20.8234 150.552 20.734 150.391 20.5448C150.293 20.4298 150.29 20.2153 150.288 20.0451C150.286 19.9329 150.339 19.8039 150.405 19.7096C151.076 18.7586 151.996 18.2669 153.161 18.252C153.519 18.2473 153.659 18.5086 153.677 19.2547L153.677 19.2544Z" fill="white"/>
<path d="M121.995 43.9021C121.813 45.1138 121.174 46.0002 120.051 46.5395C119.262 46.9182 118.43 47.1762 117.577 47.304C116.361 47.488 115.137 47.6657 113.899 47.634C111.023 47.5612 108.159 47.342 105.325 46.8219C104.56 46.682 103.819 46.4542 103.104 46.1512C102.013 45.6897 101.192 44.9323 100.632 43.8851C100.067 42.826 99.7382 41.6924 99.5421 40.5162C99.1417 38.1115 99.1879 35.7056 99.4667 33.2888C99.7162 31.1094 100.075 28.9555 100.633 26.8332C100.994 25.4647 101.444 24.1254 101.989 22.8188C102.539 21.5065 103.231 20.2777 104.124 19.1675C105.186 17.8477 106.504 16.9198 108.181 16.5472C109.135 16.3354 110.078 16.345 111.015 16.6484C112.485 17.1219 113.189 18.0072 113.278 19.5484C113.338 20.6006 113.25 21.6404 113.014 22.6739C112.166 26.4119 111.227 30.1218 109.77 33.6796C109.441 34.4832 109.075 35.2648 108.601 35.9589C107.591 36.4655 106.482 36.6553 105.581 37.3029C105.485 37.3725 105.452 37.5295 105.384 37.656C105.482 37.7669 105.568 37.8656 105.636 37.9434C106.02 38.0603 106.283 37.8205 106.566 37.7047C108.429 36.9476 110.321 36.3046 112.319 35.9941C115.339 35.5241 118.009 36.3607 120.428 38.1236C121.359 38.8017 121.846 39.7723 122.022 40.9009C122.178 41.9031 122.145 42.9074 121.995 43.9021Z" fill="#F464BA"/>
<path d="M105.076 17.835C108.4 15.5599 111.944 14.2002 113.561 16.562C115.177 18.9235 112.828 21.8288 109.504 24.1042C106.18 26.3794 102.351 27.9082 100.734 25.5467C99.118 23.1851 101.752 20.1105 105.076 17.835H105.076Z" fill="#FFABE3"/>
<path d="M124.719 41.5065C124.569 39.9607 124.135 37.7243 122.101 36.1567C119.956 34.5039 117.6 33.5644 115.097 33.3642C114.767 33.3381 114.428 33.3246 114.09 33.3246C113.628 33.3246 113.158 33.3483 112.665 33.3978C113.942 30.0049 114.8 26.5183 115.537 23.2055C115.866 21.7279 116.119 20.1265 115.745 18.4283C115.312 16.4542 114.113 15.0437 112.277 14.349C111.376 14.0077 110.428 13.8347 109.46 13.8347C108.688 13.8347 107.892 13.945 107.093 14.1625C105.17 14.6867 103.499 15.814 102.126 17.5141C100.858 19.0855 99.8605 20.9306 99.0764 23.1549C98.195 25.6592 97.5523 28.2344 97.1662 30.8093C96.7792 33.3909 96.6398 36.0426 96.7512 38.6912C96.8252 40.4425 97.1513 42.136 97.7209 43.7253C98.1892 45.0305 98.879 46.1317 99.7708 46.9985C100.692 47.894 101.835 48.5457 103.165 48.9346C103.567 49.0529 103.986 49.1623 104.449 49.2698C105.732 49.5663 107.008 49.703 108.243 49.8353C108.524 49.8652 108.814 49.8963 109.097 49.9285C110.426 50.0803 111.823 50.154 113.365 50.154C114.199 50.154 115.078 50.1326 116.052 50.0886C117.001 50.0459 117.902 49.8729 118.743 49.6994C119.849 49.4706 120.877 49.074 121.8 48.5202C123.079 47.752 123.955 46.6074 124.333 45.2104C124.702 43.8488 124.828 42.6371 124.719 41.5065ZM121.994 43.9021C121.811 45.1139 121.172 46.0002 120.049 46.5395C119.26 46.9182 118.429 47.1762 117.575 47.3041C116.359 47.488 115.135 47.6657 113.897 47.6341C111.021 47.5612 108.157 47.342 105.323 46.822C104.558 46.682 103.818 46.4543 103.102 46.1512C102.011 45.6897 101.19 44.9323 100.631 43.8851C100.065 42.826 99.7367 41.6924 99.5406 40.5162C99.1402 38.1115 99.1864 35.7057 99.4653 33.2888C99.7147 31.1094 100.074 28.9555 100.632 26.8332C100.992 25.4647 101.443 24.1254 101.988 22.8188C102.537 21.5065 103.23 20.2777 104.122 19.1675C105.184 17.8477 106.503 16.9198 108.179 16.5472C109.134 16.3354 110.076 16.345 111.014 16.6484C112.484 17.1219 113.187 18.0072 113.276 19.5484C113.337 20.6006 113.248 21.6404 113.013 22.6739C112.165 26.4119 111.226 30.1218 109.768 33.6796C109.439 34.4832 109.073 35.2648 108.599 35.9589C107.59 36.4655 106.481 36.6553 105.58 37.3029C105.484 37.3725 105.451 37.5295 105.382 37.6561C105.48 37.7669 105.566 37.8656 105.635 37.9434C106.018 38.0603 106.281 37.8205 106.565 37.7047C108.428 36.9476 110.32 36.3046 112.318 35.9941C115.337 35.5242 118.007 36.3607 120.427 38.1236C121.357 38.8018 121.844 39.7723 122.021 40.9009C122.176 41.9031 122.144 42.9074 121.994 43.9021Z" fill="#1F1F1F"/>
<path d="M115.416 38.4999C115.314 37.9644 115.409 37.7587 115.775 37.7444C115.991 37.7359 116.214 37.7329 116.424 37.7771C117.745 38.0546 118.822 38.7719 119.791 39.6761C119.853 39.7333 119.897 39.8144 119.934 39.8914C120.017 40.0589 120.009 40.2275 119.897 40.379C119.777 40.5418 119.597 40.5542 119.428 40.5055C119.307 40.4709 119.195 40.3895 119.091 40.313C118.845 40.1329 118.606 39.9431 118.365 39.7572C117.593 39.1635 116.76 38.7171 115.764 38.642C115.642 38.633 115.526 38.5469 115.416 38.4999Z" fill="white"/>
<path d="M106.901 20.0947C106.011 20.9293 105.482 21.5891 104.985 21.0589C104.488 20.5289 104.806 19.4226 105.696 18.5879C106.586 17.7532 107.71 17.5063 108.207 18.0362C108.704 18.5662 107.791 19.26 106.901 20.0947Z" fill="white"/>
</svg>
